<?xml version="1.0" encoding="iso-8859-1"?>
<!-- Generator: Adobe Illustrator 18.1.1, SVG Export Plug-In . SVG Version: 6.00 Build 0)  -->
<svg version="1.1" id="Capa_1" xmlns="http://www.w3.org/2000/svg" xmlns:xlink="http://www.w3.org/1999/xlink" x="0px" y="0px"
	 viewBox="0 0 55.79 55.79" style="enable-background:new 0 0 55.79 55.79;" xml:space="preserve">
<g>
	<path style="fill:#010002;" d="M44.325,54.486c-0.386,0-0.791-0.15-1.231-0.461L28.83,46.29c-0.469-0.341-1.402-0.341-1.871,0
		l-0.11,0.069l-14.153,7.666c-0.927,0.652-1.818,0.573-2.281-0.062c-0.306-0.421-0.35-0.995-0.129-1.706l3.475-16.096
		c0.188-0.576-0.088-1.424-0.577-1.779l-0.08-0.064L0.899,23.37c-1.005-0.75-0.956-1.477-0.836-1.847
		c0.12-0.371,0.511-0.989,1.773-1.002l16.289-1.312c0.605,0,1.328-0.524,1.515-1.1l0.035-0.091l6.72-15.347
		c0.404-1.188,1.11-1.368,1.499-1.368s1.094,0.18,1.499,1.368l6.755,15.438c0.187,0.575,0.908,1.1,1.515,1.1l0.079,0.003
		l16.209,1.309c1.264,0.013,1.654,0.631,1.774,1.002c0.12,0.37,0.168,1.096-0.836,1.847L42.606,34.381
		c-0.489,0.356-0.765,1.203-0.577,1.779l0.026,0.097l3.448,15.999c0.221,0.711,0.177,1.285-0.129,1.706
		C45.134,54.295,44.751,54.486,44.325,54.486z M29.93,44.656l13.499,7.312l-3.288-15.251c-0.413-1.354,0.136-3.042,1.265-3.896
		l11.596-10.4L37.62,21.178c-1.42-0.021-2.863-1.067-3.327-2.41l-6.398-14.61l-6.398,14.61c-0.463,1.342-1.906,2.389-3.326,2.41
		L2.787,22.42l11.596,10.4c1.129,0.854,1.678,2.541,1.266,3.894L12.36,51.967l13.499-7.312
		C26.985,43.877,28.804,43.877,29.93,44.656z M27.921,40.929c-5.066,0-9.188-4.121-9.188-9.187s4.121-9.187,9.188-9.187
		c5.065,0,9.186,4.121,9.186,9.187S32.986,40.929,27.921,40.929z M27.921,23.868c-4.343,0-7.875,3.532-7.875,7.874
		s3.532,7.874,7.875,7.874c4.342,0,7.874-3.532,7.874-7.874S32.263,23.868,27.921,23.868z M14.025,14.394L4.39,9.79
		C3.477,9.353,3.248,8.357,3.878,7.566l1.574-1.979c0.63-0.792,1.662-0.801,2.306-0.02l6.756,8.203
		C15.156,14.551,14.938,14.83,14.025,14.394z M16.164,12.569l-1.541-4.881c-0.146-0.462,0.128-0.869,0.612-0.907l1.208-0.097
		c0.484-0.039,0.825,0.32,0.762,0.801l-0.661,5.051C16.479,13.016,16.31,13.032,16.164,12.569z M41.485,14.394l9.634-4.604
		c0.913-0.436,1.143-1.433,0.513-2.224l-1.574-1.979c-0.63-0.792-1.662-0.801-2.306-0.02l-6.756,8.203
		C40.353,14.551,40.571,14.83,41.485,14.394z M10.503,36.328l-9.635,4.604c-0.913,0.437-1.143,1.433-0.513,2.225l1.574,1.979
		c0.63,0.791,1.662,0.801,2.306,0.02l6.756-8.203C11.635,36.171,11.416,35.892,10.503,36.328z M45.286,37.091l9.635,4.604
		c0.913,0.436,1.143,1.433,0.513,2.224l-1.574,1.979c-0.63,0.792-1.662,0.801-2.306,0.02l-6.756-8.202
		C44.154,36.935,44.373,36.655,45.286,37.091z M45.669,35.264l6.045-0.693c0.572-0.065,0.985,0.347,0.921,0.919l-0.161,1.432
		c-0.065,0.573-0.561,0.891-1.107,0.708l-5.744-1.916C45.075,35.531,45.096,35.329,45.669,35.264z"/>
</g>
<g>
</g>
<g>
</g>
<g>
</g>
<g>
</g>
<g>
</g>
<g>
</g>
<g>
</g>
<g>
</g>
<g>
</g>
<g>
</g>
<g>
</g>
<g>
</g>
<g>
</g>
<g>
</g>
<g>
</g>
</svg>
